<svg width="24" height="18" viewBox="0 0 24 18" fill="none" xmlns="http://www.w3.org/2000/svg">
<path d="M8.11456 17.2281C7.90901 17.2281 7.7163 17.1957 7.53644 17.131C7.35658 17.0673 7.18957 16.9583 7.0354 16.8042L0.406232 10.175C0.123593 9.89236 -0.0115598 9.52596 0.000773519 9.07579C0.0141346 8.62665 0.162134 8.26076 0.444773 7.97812C0.727412 7.69549 1.08713 7.55417 1.52394 7.55417C1.96075 7.55417 2.32047 7.69549 2.60311 7.97812L8.11456 13.4896L21.1802 0.423958C21.4628 0.14132 21.8292 0 22.2794 0C22.7285 0 23.0944 0.14132 23.3771 0.423958C23.6597 0.706597 23.801 1.07249 23.801 1.52162C23.801 1.97179 23.6597 2.33819 23.3771 2.62083L9.19373 16.8042C9.03956 16.9583 8.87255 17.0673 8.69269 17.131C8.51283 17.1957 8.32012 17.2281 8.11456 17.2281Z" fill="white"/>
</svg>
