<svg width="19" height="19" viewBox="0 0 19 19" fill="none" xmlns="http://www.w3.org/2000/svg">
<path d="M10.45 9.66625L12.5875 11.8038C12.7617 11.9779 12.8487 12.1958 12.8487 12.4573C12.8487 12.7183 12.7617 12.9437 12.5875 13.1337C12.3975 13.3237 12.172 13.4187 11.9111 13.4187C11.6495 13.4187 11.4237 13.3237 11.2337 13.1337L9.215 11.115C8.99333 10.8933 8.82708 10.6479 8.71625 10.3787C8.60542 10.1096 8.55 9.81667 8.55 9.5V6.65C8.55 6.38083 8.6412 6.15505 8.8236 5.97265C9.00537 5.79088 9.23083 5.7 9.5 5.7C9.76917 5.7 9.99495 5.79088 10.1774 5.97265C10.3591 6.15505 10.45 6.38083 10.45 6.65V9.66625ZM9.5 1.9C9.76917 1.9 9.99495 1.99088 10.1774 2.17265C10.3591 2.35505 10.45 2.58083 10.45 2.85C10.45 3.11917 10.3591 3.34495 10.1774 3.52735C9.99495 3.70912 9.76917 3.8 9.5 3.8C9.23083 3.8 9.00537 3.70912 8.8236 3.52735C8.6412 3.34495 8.55 3.11917 8.55 2.85C8.55 2.58083 8.6412 2.35505 8.8236 2.17265C9.00537 1.99088 9.23083 1.9 9.5 1.9ZM17.1 9.5C17.1 9.76917 17.0088 9.99463 16.8264 10.1764C16.6446 10.3588 16.4192 10.45 16.15 10.45C15.8808 10.45 15.6554 10.3588 15.4736 10.1764C15.2912 9.99463 15.2 9.76917 15.2 9.5C15.2 9.23083 15.2912 9.00505 15.4736 8.82265C15.6554 8.64088 15.8808 8.55 16.15 8.55C16.4192 8.55 16.6446 8.64088 16.8264 8.82265C17.0088 9.00505 17.1 9.23083 17.1 9.5ZM9.5 15.2C9.76917 15.2 9.99495 15.2912 10.1774 15.4736C10.3591 15.6554 10.45 15.8808 10.45 16.15C10.45 16.4192 10.3591 16.6446 10.1774 16.8264C9.99495 17.0088 9.76917 17.1 9.5 17.1C9.23083 17.1 9.00537 17.0088 8.8236 16.8264C8.6412 16.6446 8.55 16.4192 8.55 16.15C8.55 15.8808 8.6412 15.6554 8.8236 15.4736C9.00537 15.2912 9.23083 15.2 9.5 15.2ZM3.8 9.5C3.8 9.76917 3.70912 9.99463 3.52735 10.1764C3.34495 10.3588 3.11917 10.45 2.85 10.45C2.58083 10.45 2.35505 10.3588 2.17265 10.1764C1.99088 9.99463 1.9 9.76917 1.9 9.5C1.9 9.23083 1.99088 9.00505 2.17265 8.82265C2.35505 8.64088 2.58083 8.55 2.85 8.55C3.11917 8.55 3.34495 8.64088 3.52735 8.82265C3.70912 9.00505 3.8 9.23083 3.8 9.5ZM9.5 19C8.18583 19 6.95083 18.7505 5.795 18.2514C4.63917 17.753 3.63375 17.0763 2.77875 16.2213C1.92375 15.3663 1.24703 14.3608 0.7486 13.205C0.249533 12.0492 0 10.8142 0 9.5C0 8.18583 0.249533 6.95083 0.7486 5.795C1.24703 4.63917 1.92375 3.63375 2.77875 2.77875C3.63375 1.92375 4.63917 1.24672 5.795 0.74765C6.95083 0.249217 8.18583 0 9.5 0C10.8142 0 12.0492 0.249217 13.205 0.74765C14.3608 1.24672 15.3663 1.92375 16.2213 2.77875C17.0763 3.63375 17.753 4.63917 18.2514 5.795C18.7505 6.95083 19 8.18583 19 9.5C19 10.8142 18.7505 12.0492 18.2514 13.205C17.753 14.3608 17.0763 15.3663 16.2213 16.2213C15.3663 17.0763 14.3608 17.753 13.205 18.2514C12.0492 18.7505 10.8142 19 9.5 19ZM9.5 17.1C11.6217 17.1 13.4187 16.3637 14.8912 14.8912C16.3637 13.4187 17.1 11.6217 17.1 9.5C17.1 7.37833 16.3637 5.58125 14.8912 4.10875C13.4187 2.63625 11.6217 1.9 9.5 1.9C7.37833 1.9 5.58125 2.63625 4.10875 4.10875C2.63625 5.58125 1.9 7.37833 1.9 9.5C1.9 11.6217 2.63625 13.4187 4.10875 14.8912C5.58125 16.3637 7.37833 17.1 9.5 17.1Z" fill="white"/>
</svg>
