<svg width="33" height="22" viewBox="0 0 33 22" fill="none" xmlns="http://www.w3.org/2000/svg">
<path d="M16.0417 0C8.75 0 2.52292 4.53542 0 10.9375C2.52292 17.3396 8.75 21.875 16.0417 21.875C23.3333 21.875 29.5604 17.3396 32.0833 10.9375C29.5604 4.53542 23.3333 0 16.0417 0ZM16.0417 18.2292C12.0167 18.2292 8.75 14.9625 8.75 10.9375C8.75 6.9125 12.0167 3.64583 16.0417 3.64583C20.0667 3.64583 23.3333 6.9125 23.3333 10.9375C23.3333 14.9625 20.0667 18.2292 16.0417 18.2292ZM16.0417 6.5625C13.6208 6.5625 11.6667 8.51667 11.6667 10.9375C11.6667 13.3583 13.6208 15.3125 16.0417 15.3125C18.4625 15.3125 20.4167 13.3583 20.4167 10.9375C20.4167 8.51667 18.4625 6.5625 16.0417 6.5625Z" fill="#646464"/>
</svg>
