<svg width="23" height="23" viewBox="0 0 23 23" fill="none" xmlns="http://www.w3.org/2000/svg">
<path d="M11.3188 7.33335C9.0501 7.33335 7.21254 9.19794 7.21254 11.5C7.21254 13.8021 9.0501 15.6667 11.3188 15.6667C13.5875 15.6667 15.4251 13.8021 15.4251 11.5C15.4251 9.19794 13.5875 7.33335 11.3188 7.33335ZM20.4964 10.4584C20.2638 8.34598 19.3303 6.37662 17.8491 4.87366C16.368 3.3707 14.4271 2.42347 12.3454 2.18752V1.08335C12.3454 0.510437 11.8834 0.041687 11.3188 0.041687C10.7542 0.041687 10.2922 0.510437 10.2922 1.08335V2.18752C8.21049 2.42347 6.26967 3.3707 4.78849 4.87366C3.30731 6.37662 2.37381 8.34598 2.14128 10.4584H1.05312C0.488507 10.4584 0.0265503 10.9271 0.0265503 11.5C0.0265503 12.0729 0.488507 12.5417 1.05312 12.5417H2.14128C2.37381 14.6541 3.30731 16.6234 4.78849 18.1264C6.26967 19.6293 8.21049 20.5766 10.2922 20.8125V21.9167C10.2922 22.4896 10.7542 22.9584 11.3188 22.9584C11.8834 22.9584 12.3454 22.4896 12.3454 21.9167V20.8125C14.4271 20.5766 16.368 19.6293 17.8491 18.1264C19.3303 16.6234 20.2638 14.6541 20.4964 12.5417H21.5845C22.1491 12.5417 22.6111 12.0729 22.6111 11.5C22.6111 10.9271 22.1491 10.4584 21.5845 10.4584H20.4964ZM11.3188 18.7917C7.34599 18.7917 4.13283 15.5313 4.13283 11.5C4.13283 7.46877 7.34599 4.20835 11.3188 4.20835C15.2916 4.20835 18.5048 7.46877 18.5048 11.5C18.5048 15.5313 15.2916 18.7917 11.3188 18.7917Z" fill="#262626"/>
</svg>
