<svg width="87" height="106" viewBox="0 0 87 106" xmlns="http://www.w3.org/2000/svg">
<g clip-path="url(#clip0_12_1317)">
<path d="M20.443 35.2432C20.5538 35.0142 20.5691 34.7505 20.4857 34.5101C20.4023 34.2697 20.227 34.0724 19.9983 33.9615C19.7696 33.8505 19.5063 33.8352 19.2663 33.9187C19.0263 34.0022 18.8293 34.1778 18.7186 34.4069C18.7146 34.4155 18.71 34.4248 18.706 34.4341C18.3678 35.1652 18.0797 35.9185 17.8437 36.6887L19.0184 40.5782C19.1704 38.7288 19.6529 36.9217 20.443 35.2432Z" />
<path d="M18.2894 48.3658C18.3564 48.5503 18.4785 48.7097 18.639 48.8224C18.7995 48.9351 18.9908 48.9955 19.1868 48.9956C19.3017 48.9938 19.4155 48.9734 19.5238 48.9351C19.7604 48.8473 19.9526 48.6689 20.0579 48.4391C20.1633 48.2094 20.1732 47.9472 20.0855 47.7102C19.6265 46.4765 19.3036 45.1963 19.1225 43.8924L17.3728 44.9931C17.5793 46.1421 17.886 47.2706 18.2894 48.3658Z" />
<path d="M19.0203 40.5775L17.8457 36.688C17.2222 38.7101 16.9749 40.8296 17.1161 42.9411L19.0522 43.2733C18.9627 42.3774 18.952 41.4753 19.0203 40.5775Z" />
<path d="M19.1212 43.8891C19.0933 43.6832 19.0708 43.4779 19.0509 43.2726L17.1148 42.9405C17.1611 43.6285 17.2462 44.3134 17.3695 44.9918L19.1212 43.8891Z" />
<path d="M63.3581 28.2016C63.435 28.5414 63.632 28.842 63.9128 29.0477C64.1936 29.2535 64.5392 29.3507 64.8858 29.3213C65.2325 29.2919 65.5569 29.138 65.7992 28.8879C66.0415 28.6378 66.1853 28.3084 66.2041 27.9604L63.3322 28.1053C63.3401 28.1385 63.3508 28.1684 63.3581 28.2016Z" />
<path d="M53.9802 17.0772C53.9314 17.0647 53.8797 17.0708 53.8352 17.0943C53.7907 17.1178 53.7564 17.157 53.7391 17.2044C53.7219 17.2517 53.7228 17.3038 53.7417 17.3506C53.7607 17.3973 53.7962 17.4353 53.8416 17.4572C56.8926 18.8443 61.948 22.0064 63.3322 28.1053L66.2041 27.9605C66.2186 27.7127 66.169 27.4654 66.0602 27.2424C64.6249 24.2882 61.1441 19.0243 53.9802 17.0772Z" />
<path d="M66.6657 58.713C64.0294 62.2464 60.6392 65.1461 56.742 67.2008L62.1052 87.6918C62.4301 87.3779 62.756 87.0608 63.0828 86.7406L67.6036 58.5742L66.6657 58.713Z" />
<path d="M50.4536 69.6368L42.4441 75.1345L61.1607 88.6012C61.4742 88.3014 61.789 87.9989 62.1052 87.6938L56.742 67.2028C54.7464 68.2538 52.6363 69.0706 50.4536 69.6368Z" />
<path d="M16.0211 76.8431L42.4441 75.1346L26.6233 70.1642L16.0211 76.8431Z" />
<path d="M22.5549 86.32C25.4487 89.1765 28.3107 91.8105 30.9259 94.2119L59.5967 90.0833C60.1141 89.5962 60.6354 89.1021 61.1607 88.6012L42.4441 75.1345L22.5549 86.32Z" />
<path d="M16.0211 76.8431L16.5457 80.0444C18.5163 82.2412 20.5432 84.3344 22.5549 86.32L42.4441 75.1345L16.0211 76.8431Z" />
<path d="M14.9559 78.2329C15.4803 78.8449 16.0109 79.4488 16.5477 80.0444L16.0231 76.8431L14.9559 78.2329Z" />
<path d="M68.0128 58.5137L74.148 74.5314C74.3691 74.2466 74.5888 73.9601 74.8073 73.6718L73.238 57.7166L68.0128 58.5137Z" />
<path d="M19.7168 67.994L16.0211 76.8431L26.6233 70.1642L19.7168 67.994Z" />
<path d="M67.6036 58.5728L63.0828 86.7426C66.8587 83.0424 70.7063 78.9636 74.148 74.5287L68.0128 58.5137L67.6036 58.5728Z" />
<path d="M12.7651 75.5936C13.1308 76.0506 13.5002 76.5034 13.8734 76.9521L16.0211 76.8431L12.7651 75.5936Z" />
<path d="M38.0387 100.935L45.6231 102.956L47.4597 101.517C50.4477 98.3851 54.8371 94.5567 59.5974 90.0847L30.9266 94.2133C33.6439 96.7111 36.0947 98.9531 38.0387 100.935Z" />
<path d="M13.8734 76.9521C14.2312 77.3826 14.592 77.8095 14.9559 78.2329L16.0211 76.8431L13.8734 76.9521Z" />
<path d="M30.4457 67.7568L26.6233 70.1636L42.4441 75.1345L41.0512 70.511C37.3747 70.2687 33.7766 69.3343 30.4457 67.7568Z" />
<path d="M45.9866 103.05L46.0357 103.002C46.301 102.752 46.4482 102.608 46.6326 102.404L46.8143 102.205L46.8979 102.112C47.0783 101.913 47.2673 101.713 47.4597 101.514L45.6231 102.956L45.9866 103.05Z" />
<path d="M75.1363 57.4302L73.238 57.7185L74.8073 73.6691C77.3582 70.2951 79.659 66.7205 81.5062 62.9552L77.4855 59.471L75.1363 57.4302Z" />
<path d="M42.4673 105.424L43.0424 106L45.9866 103.05L45.6231 102.954L42.4673 105.424Z" />
<path d="M38.0387 100.935C38.4367 101.339 38.8108 101.733 39.1663 102.114L42.4706 105.424L45.6277 102.956L38.0387 100.935Z" />
<path d="M9.4276 71.1295C10.4888 72.6574 11.6064 74.1447 12.7651 75.5936L16.0211 76.8431L9.4276 71.1295Z" />
<path d="M19.7168 67.994L4.73304 63.2861C6.08941 66.0017 7.68057 68.6171 9.4276 71.1295L16.0211 76.8425L19.7168 67.994Z" />
<path d="M35.1568 51.0211L36.1948 54.4555H48.1813C48.9225 54.454 49.6628 54.4032 50.3973 54.3034L48.4287 52.7184L35.1568 51.0211Z" />
<path d="M22.0912 61.8226L19.7168 67.9939L23.2891 62.9718C22.8792 62.6007 22.4799 62.2176 22.0912 61.8226Z" />
<path d="M41.0512 70.511L42.4474 75.1345L50.457 69.6368C48.0351 70.2666 45.5432 70.5854 43.041 70.5854C42.3711 70.5854 41.7079 70.5549 41.0512 70.511Z" />
<path d="M16.2187 62.6423L13.4994 64.0912L4.29263 62.374C4.43789 62.6789 4.5838 62.9831 4.73502 63.286L19.7188 67.9939L16.2187 62.6423Z" />
<path d="M20.6719 60.2721L16.2187 62.6423L19.7168 67.9939L22.0912 61.8226C21.5991 61.3237 21.1275 60.8049 20.6719 60.2721Z" />
<path d="M23.2891 62.9719L19.7168 67.994L27.0976 65.8875C25.7518 65.0198 24.4782 64.0448 23.2891 62.9719Z" />
<path d="M33.8675 50.8563L30.9909 53.1149C31.1632 53.5134 31.4479 53.8528 31.8101 54.0915C32.1723 54.3301 32.5962 54.4575 33.0298 54.4582H36.1948L35.1568 51.0237L33.8675 50.8563Z" />
<path d="M30.4457 67.7568C29.2903 67.2068 28.1719 66.5822 27.0976 65.8868L19.7168 67.9939L26.6233 70.1636L30.4457 67.7568Z" />
<path d="M0.772035 34.9191C0.346951 37.2121 0.108719 39.5359 0.0596924 41.8677L2.20601 40.3949L0.772035 34.9191Z" />
<path d="M15.1655 31.4985C15.2835 31.154 15.4076 30.8117 15.5376 30.4715L4.9592 22.8619C2.9653 26.6469 1.55366 30.7118 0.772034 34.919L2.206 40.3949L15.1655 31.4985Z" />
<path d="M30.9285 29.9075C30.64 30.7711 30.8788 31.8831 32.0276 32.8537C32.8381 33.5299 33.8641 33.8787 34.9141 33.9431L42.5071 29.1602L30.9285 29.9075Z" />
<path d="M39.6531 11.7535L39.3812 10.0927L11.0055 14.1808C8.64075 16.8135 6.61075 19.7294 4.96186 22.8619L15.5402 30.4715C19.4017 20.4193 28.5945 13.0223 39.6531 11.7535Z" />
<path d="M49.2465 12.2165L53.0211 10.0908H39.3812L39.6531 11.7515C42.8546 11.3753 46.0962 11.5325 49.2465 12.2165Z" />
<path d="M42.3851 28.4208H32.9926C32.5363 28.4209 32.0914 28.5645 31.7211 28.8316C31.3507 29.0986 31.0734 29.4754 30.9285 29.9089L42.5104 29.1602L42.3851 28.4208Z" />
<path d="M43.0749 28.4195H42.3851L42.5071 29.1602L43.0749 28.4195Z" />
<path d="M54.2913 13.7882L55.3406 12.4198L53.0191 10.0947L49.2445 12.2205C50.9706 12.5893 52.6598 13.114 54.2913 13.7882Z" />
<path d="M34.9141 33.9431C35.0268 33.9498 35.1376 33.9697 35.251 33.9697H40.4987L42.5071 29.1602L34.9141 33.9431Z" />
<path d="M69.9184 28.9635L70.6347 27.7359L69.3645 27.8023C69.5569 28.1836 69.7415 28.5707 69.9184 28.9635Z" />
<path d="M64.8059 37.7151L64.993 37.3962C64.3446 37.3623 63.7127 37.1796 63.1461 36.8621C62.5795 36.5447 62.0933 36.101 61.7251 35.5654C59.2448 31.9947 55.4681 29.5376 51.2025 28.7198L42.5071 29.1602L64.8059 37.7151Z" />
<path d="M21.9175 5.44592C17.8282 7.74101 14.142 10.6917 11.0055 14.1808L39.3838 10.0934L21.9175 5.44592Z" />
<path d="M53.0211 10.0934L54.0983 1.37778C53.2698 1.16188 52.4295 0.975211 51.5818 0.808472C45.129 5.69109 39.3812 10.0934 39.3812 10.0934H53.0211Z" />
<path d="M51.2025 28.7198C50.1699 28.5206 49.1208 28.4201 48.0692 28.4195H43.0742L42.5071 29.1602L51.2025 28.7198Z" />
<path d="M59.4959 16.581L55.3406 12.4198L54.2913 13.7883C56.1152 14.5421 57.8589 15.4777 59.4959 16.581Z" />
<path d="M70.6327 27.7359L67.4743 24.5732C68.1713 25.6078 68.802 26.6857 69.3626 27.8003L70.6327 27.7359Z" />
<path d="M2.206 40.3949L0.0616836 41.8676C0.0550509 42.1805 0.0378071 42.4908 0.0378071 42.805C-0.0875797 45.5905 0.100194 48.3813 0.597596 51.1247L5.38768 52.5423L2.206 40.3949Z" />
<path d="M5.38568 52.5423L0.595612 51.1247C0.807413 52.3054 1.07117 53.4714 1.38688 54.6229L5.85793 54.3432L5.38568 52.5423Z" />
<path d="M1.38821 54.6229C1.59205 55.3687 1.81535 56.1085 2.0581 56.8423L5.85925 54.3432L1.38821 54.6229Z" />
<path d="M51.5818 0.80845C48.8572 0.271875 46.0871 0.00112822 43.3103 0H42.7757C41.2367 0.00194116 39.6989 0.0857551 38.1687 0.2511L39.3831 10.0934C39.3831 10.0934 45.129 5.69107 51.5818 0.80845Z" />
<path d="M55.3405 12.4198L61.682 4.14988C59.2477 2.98679 56.7083 2.05855 54.0983 1.37775L53.0211 10.0934L55.3405 12.4198Z" />
<path d="M38.1667 0.254456C32.4549 0.86675 26.9266 2.63405 21.9168 5.44929L39.3805 10.0994L38.1667 0.254456Z" />
<path d="M72.1954 36.7784C72.2106 36.8814 72.2305 36.983 72.2444 37.0867C71.9685 37.2833 71.6405 37.3935 71.302 37.4035L68.7152 39.2138L86.0595 45.8681C86.0967 44.8563 86.098 43.836 86.0502 42.805C86.0521 38.0193 85.251 33.2674 83.6804 28.7477L72.1954 36.7784Z" />
<path d="M65.18 37.4075C65.117 37.4075 65.0553 37.3989 64.993 37.3962L64.806 37.7151L68.7132 39.2138L71.3 37.4035C71.2807 37.4035 71.2628 37.4075 71.2429 37.4075H65.18Z" />
<path d="M69.9184 28.9636C71.0368 31.4497 71.8032 34.08 72.1954 36.7784L83.6784 28.7477C82.4569 25.2216 80.7784 21.8715 78.686 18.7831L70.6327 27.7359L69.9184 28.9636Z" />
<path d="M59.4959 16.581C62.6428 18.7082 65.352 21.4216 67.4762 24.5732L70.6347 27.7359L68.1594 7.98956C66.1173 6.52123 63.9498 5.23635 61.682 4.1499L55.3405 12.4198L59.4959 16.581Z" />
<path d="M78.686 18.7832C78.036 17.8246 77.3429 16.8985 76.62 15.9984L70.6327 27.736L78.686 18.7832Z" />
<path d="M76.62 15.9984C74.1754 12.9569 71.3291 10.2626 68.1594 7.98956L70.6327 27.7359L76.62 15.9984Z" />
<path d="M66.6657 58.713L67.6036 58.5709L68.0128 58.5091L73.238 57.7166L75.1362 57.4283L70.0086 52.9854C69.1128 55.0144 67.9914 56.9357 66.6657 58.713Z" />
<path d="M59.6305 49.8778C60.4514 49.1006 61.1908 48.2414 61.8372 47.3135C62.0402 47.0224 62.2776 46.757 62.5442 46.523L60.6321 44.8663L59.6305 49.8778Z" />
<path d="M48.4287 52.7183L50.3973 54.3033C53.863 53.837 57.0938 52.2884 59.6305 49.8778L60.6321 44.8663L48.4287 52.7183Z" />
<path d="M60.6321 44.863L68.7132 39.2138L64.806 37.7151L60.6321 44.863Z" />
<path d="M64.806 37.7151L42.5071 29.1602L60.6321 44.863L64.806 37.7151Z" />
<path d="M62.5442 46.5197C62.8778 46.2281 63.2546 45.9904 63.6612 45.8149L60.6321 44.863L62.5442 46.5197Z" />
<path d="M71.613 48.3134C71.2105 49.9138 70.6738 51.4774 70.0086 52.9874L75.1363 57.4302L77.4882 59.471L85.1734 52.7097C85.1827 52.6672 85.1906 52.6247 85.1999 52.5822L71.613 48.3134Z" />
<path d="M77.4882 59.471L81.5089 62.9553C83.1173 59.6816 84.3841 56.2651 85.1734 52.7097L77.4882 59.471Z" />
<path d="M42.5104 29.1602L40.5021 33.9697H45.4626C46.8608 33.9697 48.1097 34.9881 48.2297 36.3745C48.2931 37.0725 48.0773 37.7673 47.6296 38.306C47.1818 38.8447 46.5389 39.1834 45.842 39.2476C45.7637 39.2542 45.6855 39.2582 45.6065 39.2582H42.799L60.6374 44.8629L42.5104 29.1602Z" />
<path d="M68.7132 39.2137L60.6321 44.8603L63.6612 45.8123C64.1751 45.5851 64.7304 45.4668 65.2921 45.4648H71.9334C72.0171 45.4656 72.1007 45.4727 72.1834 45.4861C72.0395 46.444 71.8465 47.3853 71.613 48.3107L85.1999 52.5795C85.6845 50.3715 85.9715 48.1245 86.0575 45.8654L68.7132 39.2137Z" />
<path d="M14.1693 47.0087L5.38568 52.5423L5.85793 54.3432L18.2304 56.9858C16.2731 53.9398 14.8962 50.557 14.1693 47.0087Z" />
<path d="M37.924 39.2582L34.8226 43.6174H36.6538L38.3319 39.2582H37.924Z" />
<path d="M34.6176 48.9053H34.1805C33.2949 48.9071 32.4456 49.2577 31.8159 49.8814C31.1863 50.5051 30.8268 51.3518 30.8151 52.2387C30.8118 52.539 30.8715 52.8366 30.9902 53.1123L33.8668 50.8537L34.6176 48.9053Z" />
<path d="M19.4349 58.7395C19.0111 58.1722 18.6138 57.5843 18.2304 56.9865L5.85793 54.3432L2.05677 56.8423C2.43041 57.969 2.84738 59.0803 3.30768 60.1764L19.4349 58.7395Z" />
<path d="M16.2187 62.6423L20.6719 60.2721C20.2447 59.7739 19.8282 59.2664 19.4349 58.7396L3.30768 60.1745C3.6172 60.9141 3.94486 61.6466 4.29064 62.372L13.4974 64.0938L16.2187 62.6423Z" />
<path d="M13.5723 41.0698C13.571 37.8132 14.1089 34.5789 15.1641 31.4985L2.20469 40.3949L13.6035 42.3419C13.5869 41.9194 13.5723 41.4963 13.5723 41.0698Z" />
<path d="M14.1693 47.0087C13.8577 45.4706 13.6689 43.9101 13.6048 42.342L2.20601 40.3949L5.38569 52.5423L14.1693 47.0087Z" />
<path d="M42.7936 39.2582H39.6312L42.4799 43.6174H45.4593C46.8574 43.6174 48.1064 44.6358 48.2264 46.0288C48.2861 46.7108 48.0781 47.3892 47.6465 47.92C47.2149 48.4509 46.5938 48.7924 45.915 48.872L48.4287 52.7183L60.6327 44.863L42.7936 39.2582Z" />
<path d="M39.6312 39.2582H38.3319L36.6538 43.6174H42.4806L39.6312 39.2582Z" />
<path d="M33.8675 50.8563L35.1568 51.021L48.4287 52.7183L45.9149 48.872C45.8111 48.8894 45.7064 48.9005 45.6012 48.9052H34.6176L33.8675 50.8563Z" />
<path d="M34.4332 39.2582L31.235 40.171C30.9477 40.5658 30.8031 41.0468 30.8251 41.5348C30.8775 42.7259 31.9466 43.6174 33.1359 43.6174H34.8239L37.9253 39.2582H34.4332Z" />
<path d="M32.9926 39.2582C32.6481 39.2593 32.3087 39.3426 32.0028 39.5014C31.6969 39.6601 31.4332 39.8897 31.2336 40.171L34.4332 39.2582H32.9926Z" />
</g>
<defs>
<clipPath id="clip0_12_1317">
<rect width="86.0867" height="106" />
</clipPath>
</defs>
</svg>
