<svg width="43" height="52" viewBox="0 0 43 52" fill="none" xmlns="http://www.w3.org/2000/svg">
<path d="M10.5111 17.2868C10.5396 17.2327 10.5562 17.1741 10.5598 17.1141C10.5634 17.0542 10.5539 16.9942 10.5319 16.9376C10.51 16.8811 10.4759 16.8291 10.4318 16.7847C10.3877 16.7403 10.3344 16.7044 10.275 16.6791C10.2156 16.6537 10.1513 16.6395 10.0858 16.6371C10.0203 16.6348 9.955 16.6444 9.89362 16.6654C9.83223 16.6864 9.77602 16.7184 9.72825 16.7595C9.68048 16.8005 9.64212 16.8499 9.61539 16.9047C9.44086 17.2499 9.29215 17.6056 9.17029 17.9693L9.77666 19.8057C9.85485 18.9325 10.1036 18.0793 10.5111 17.2868Z" fill="#07163F"/>
<path d="M9.3661 23.4735C9.3949 23.5594 9.44736 23.6336 9.51638 23.686C9.58539 23.7385 9.66762 23.7666 9.75189 23.7666C9.80126 23.7658 9.85017 23.7563 9.89673 23.7385C9.94723 23.7182 9.99353 23.6873 10.033 23.6475C10.0724 23.6078 10.1043 23.56 10.1267 23.5069C10.149 23.4538 10.1615 23.3964 10.1634 23.338C10.1653 23.2797 10.1566 23.2215 10.1377 23.1668C9.94023 22.5927 9.80141 21.9969 9.72366 21.39L8.97205 21.9038C9.06079 22.4385 9.19265 22.9638 9.3661 23.4735Z" fill="#07163F"/>
<path d="M9.75034 19.778L9.15965 18.0233C8.846 18.9355 8.72164 19.8917 8.79276 20.8443L9.76635 20.9941C9.72134 20.59 9.71599 20.183 9.75034 19.778Z" fill="#07163F"/>
<path d="M9.76635 21.4516C9.75256 21.3522 9.7414 21.2531 9.73155 21.154L8.77332 20.9937C8.79619 21.3258 8.83827 21.6565 8.89937 21.984L9.76635 21.4516Z" fill="#07163F"/>
<path d="M31.4267 13.7709C31.464 13.9187 31.5593 14.0494 31.6952 14.1389C31.8312 14.2284 31.9985 14.2707 32.1663 14.2579C32.3341 14.2451 32.4911 14.1782 32.6084 14.0694C32.7257 13.9606 32.7953 13.8173 32.8044 13.666L31.4142 13.729C31.418 13.7434 31.4232 13.7564 31.4267 13.7709Z" fill="#07163F"/>
<path d="M26.7728 8.32148C26.7487 8.31541 26.7232 8.31835 26.7012 8.32974C26.6793 8.34112 26.6624 8.36014 26.6538 8.38309C26.6453 8.40605 26.6458 8.4313 26.6551 8.45394C26.6645 8.47658 26.682 8.495 26.7044 8.50562C28.2096 9.17782 30.7036 10.7102 31.3865 13.6659L32.8033 13.5957C32.8106 13.4756 32.7861 13.3557 32.7323 13.2477C32.0242 11.816 30.307 9.26506 26.7728 8.32148Z" fill="#07163F"/>
<path d="M33.1362 28.5896C31.8346 30.3198 30.1608 31.7397 28.2368 32.7459L30.8846 42.7799C31.045 42.6259 31.2059 42.4706 31.3673 42.3141L33.5992 28.52L33.1362 28.5896Z" fill="#07163F"/>
<path d="M25.1689 33.8731L21.2853 36.57L30.3604 43.176C30.5124 43.029 30.6651 42.8806 30.8184 42.7309L28.218 32.6791C27.2503 33.1947 26.2272 33.5953 25.1689 33.8731Z" fill="#07163F"/>
<path d="M8.17725 37.4323L21.2853 36.6216L13.4368 34.2634L8.17725 37.4323Z" fill="#07163F"/>
<path d="M11.5537 42.098C12.968 43.4918 14.3667 44.777 15.6448 45.9488L29.657 43.9343C29.9098 43.6966 30.1646 43.4555 30.4213 43.2111L21.2741 36.6402L11.5537 42.098Z" fill="#07163F"/>
<path d="M8.17725 37.457L8.43751 38.9875C9.41507 40.0377 10.4206 41.0384 11.4185 41.9877L21.2853 36.6402L8.17725 37.457Z" fill="#07163F"/>
<path d="M7.78033 38.1202C8.04205 38.4231 8.30686 38.722 8.57476 39.0168L8.31293 37.4323L7.78033 38.1202Z" fill="#07163F"/>
<path d="M33.7976 28.518L36.667 36.442C36.7704 36.3011 36.8732 36.1593 36.9753 36.0167L36.2414 28.1237L33.7976 28.518Z" fill="#07163F"/>
<path d="M10.0464 33.0754L8.17725 37.4326L13.5396 34.144L10.0464 33.0754Z" fill="#07163F"/>
<path d="M33.605 28.5486L31.4142 42.1857C33.2441 40.3945 35.1087 38.4199 36.7766 36.2729L33.8034 28.52L33.605 28.5486Z" fill="#07163F"/>
<path d="M6.78729 36.8381C6.94343 37.038 7.10117 37.2361 7.26052 37.4323L8.17754 37.3846L6.78729 36.8381Z" fill="#07163F"/>
<path d="M19.0238 49.1442L22.754 50.1078L23.6572 49.4218C25.1268 47.9276 27.2857 46.1014 29.6269 43.9681L15.5258 45.9376C16.8623 47.1291 18.0676 48.1986 19.0238 49.1442Z" fill="#07163F"/>
<path d="M7.18427 37.4944C7.34967 37.7398 7.5165 37.9832 7.68477 38.2245L8.1773 37.4323L7.18427 37.4944Z" fill="#07163F"/>
<path d="M15.4111 33.0754L13.5397 34.2384L21.2854 36.6404L20.6035 34.4063C18.8034 34.2893 17.0419 33.8377 15.4111 33.0754Z" fill="#07163F"/>
<path d="M23.0315 50.1078L23.0528 50.0891C23.1675 49.9925 23.2312 49.9367 23.311 49.8579L23.3896 49.7808L23.4257 49.7448C23.5038 49.6678 23.5856 49.5907 23.6688 49.5136L22.8743 50.0711L23.0315 50.1078Z" fill="#07163F"/>
<path d="M37.2916 27.9255L36.3797 28.0662L37.1336 35.8477C38.3591 34.2017 39.4644 32.4578 40.3518 30.6209L38.4203 28.9211L37.2916 27.9255Z" fill="#07163F"/>
<path d="M21.2853 51.3927L21.5449 51.6923L22.8741 50.158L22.71 50.1078L21.2853 51.3927Z" fill="#07163F"/>
<path d="M19.101 49.1176C19.2989 49.3311 19.4849 49.5397 19.6617 49.7419L21.305 51.4942L22.8745 50.1865L19.101 49.1176Z" fill="#07163F"/>
<path d="M4.99994 34.6595C5.51139 35.4009 6.05001 36.1227 6.60845 36.8259L8.17764 37.4322L4.99994 34.6595Z" fill="#07163F"/>
<path d="M10.1636 33.1661L2.61652 30.8963C3.2997 32.2056 4.10113 33.4665 4.98108 34.6778L8.3021 37.4321L10.1636 33.1661Z" fill="#07163F"/>
<path d="M17.7105 24.757L18.211 26.5395H23.9905C24.3479 26.5388 24.7048 26.5124 25.0589 26.4606L24.1098 25.6379L17.7105 24.757Z" fill="#07163F"/>
<path d="M11.3514 30.1042L10.1633 33.075L11.9508 30.6574C11.7457 30.4788 11.5459 30.2944 11.3514 30.1042Z" fill="#07163F"/>
<path d="M20.4909 34.4747L21.169 36.64L25.0589 34.0653C23.8827 34.3602 22.6724 34.5095 21.4573 34.5095C21.1319 34.5095 20.8098 34.4952 20.4909 34.4747Z" fill="#07163F"/>
<path d="M8.45121 30.4347L7.12079 31.1496L2.61652 30.3023C2.68758 30.4528 2.75897 30.6029 2.83295 30.7523L10.1636 33.0751L8.45121 30.4347Z" fill="#07163F"/>
<path d="M10.4844 29.3121L8.37598 30.4671L10.0322 33.0751L11.1565 30.0677C10.9234 29.8245 10.7002 29.5717 10.4844 29.3121Z" fill="#07163F"/>
<path d="M11.8936 30.6986L10.1633 33.0753L13.7382 32.0784C13.0864 31.6679 12.4695 31.2065 11.8936 30.6986Z" fill="#07163F"/>
<path d="M17.0419 24.757L15.7245 25.8748C15.8034 26.072 15.9338 26.24 16.0997 26.3581C16.2655 26.4761 16.4597 26.5392 16.6582 26.5395H18.1078L17.6324 24.8399L17.0419 24.757Z" fill="#07163F"/>
<path d="M15.3271 33.0373C14.771 32.7572 14.2327 32.439 13.7157 32.0847L10.1633 33.1581L13.4874 34.2633L15.3271 33.0373Z" fill="#07163F"/>
<path d="M0.827257 17.0326C0.591228 18.1437 0.458961 19.2697 0.431763 20.3996L1.6234 19.6859L0.827257 17.0326Z" fill="#07163F"/>
<path d="M7.99242 15.2861C8.05117 15.1188 8.1129 14.9525 8.1776 14.7873L2.91301 11.091C1.92066 12.9295 1.21812 14.904 0.829163 16.9476L1.54281 19.6074L7.99242 15.2861Z" fill="#07163F"/>
<path d="M15.5808 14.6313C15.4386 15.0605 15.5563 15.613 16.1223 16.0953C16.5216 16.4313 17.0271 16.6046 17.5444 16.6366L21.2854 14.26L15.5808 14.6313Z" fill="#07163F"/>
<path d="M19.8953 5.75834L19.7615 4.95132L5.79076 6.93788C4.6265 8.21717 3.62703 9.6341 2.81519 11.1563L8.02342 14.8541C9.92463 9.96935 14.4507 6.3749 19.8953 5.75834Z" fill="#07163F"/>
<path d="M24.5805 5.9416L26.4492 4.95132H19.6966L19.8312 5.72498C21.4162 5.54975 23.021 5.62295 24.5805 5.9416Z" fill="#07163F"/>
<path d="M21.2231 13.8637H16.5523C16.3253 13.8637 16.1041 13.9211 15.9199 14.0277C15.7357 14.1343 15.5979 14.2848 15.5258 14.4579L21.2854 14.1589L21.2231 13.8637Z" fill="#07163F"/>
<path d="M21.4833 13.8637H21.2853L21.3203 14.2598L21.4833 13.8637Z" fill="#07163F"/>
<path d="M26.9636 6.73382L27.4422 6.0734L26.3833 4.95132L24.6617 5.97722C25.449 6.15525 26.2194 6.40848 26.9636 6.73382Z" fill="#07163F"/>
<path d="M17.5118 16.6235C17.5679 16.6268 17.6229 16.6366 17.6793 16.6366H20.2873L21.2854 14.26L17.5118 16.6235Z" fill="#07163F"/>
<path d="M34.6535 14.2596L34.9895 13.4674L34.3937 13.5103C34.4839 13.7564 34.5705 14.0061 34.6535 14.2596Z" fill="#07163F"/>
<path d="M32.1178 18.419L32.2086 18.2646C31.8936 18.2482 31.5866 18.1598 31.3114 18.006C31.0361 17.8522 30.7999 17.6373 30.6211 17.3778C29.4163 15.6481 27.5816 14.458 25.5094 14.0618L21.2853 14.2752L32.1178 18.419Z" fill="#07163F"/>
<path d="M11.14 2.57452C9.13662 3.71932 7.33077 5.19123 5.79425 6.93173L19.6967 4.8928L11.14 2.57452Z" fill="#07163F"/>
<path d="M26.5072 4.9511L27.045 0.675151C26.6314 0.56923 26.2118 0.477647 25.7886 0.395844C22.5666 2.79129 19.6966 4.9511 19.6966 4.9511H26.5072Z" fill="#07163F"/>
<path d="M25.456 14.0243C24.9607 13.9179 24.4575 13.8641 23.9531 13.8637H21.5573L21.2853 14.2598L25.456 14.0243Z" fill="#07163F"/>
<path d="M29.627 8.12019L27.5656 5.94159L27.0451 6.65805C27.9499 7.05269 28.8149 7.54254 29.627 8.12019Z" fill="#07163F"/>
<path d="M34.9891 13.44L33.5989 12.0813C33.9056 12.5258 34.1832 12.9889 34.4301 13.4677L34.9891 13.44Z" fill="#07163F"/>
<path d="M1.4889 19.6076L0.461275 20.3279C0.458096 20.481 0.449832 20.6327 0.449832 20.7864C0.389719 22.1489 0.479706 23.5139 0.718099 24.8558L3.01365 25.5492L1.4889 19.6076Z" fill="#07163F"/>
<path d="M3.1614 25.5968L0.630432 24.9547C0.742343 25.4895 0.881704 26.0177 1.04852 26.5392L3.41092 26.4125L3.1614 25.5968Z" fill="#07163F"/>
<path d="M1.0274 26.6724C1.13606 27.027 1.25509 27.3788 1.38449 27.7278L3.41068 26.5394L1.0274 26.6724Z" fill="#07163F"/>
<path d="M25.655 0.396589C24.3236 0.133369 22.9701 0.000553456 21.6133 0H21.3521C20.6 0.000824866 19.8486 0.0419406 19.101 0.123178L19.6944 4.95137C19.6944 4.95137 22.5019 2.79178 25.655 0.396589Z" fill="#07163F"/>
<path d="M27.566 5.94154L30.6198 2.08489C29.4475 1.54245 28.2247 1.10956 26.9677 0.792114L26.449 4.85663L27.566 5.94154Z" fill="#07163F"/>
<path d="M19.1028 0.198151C16.3096 0.493812 13.6062 1.34709 11.1563 2.70631L19.6964 4.95146L19.1028 0.198151Z" fill="#07163F"/>
<path d="M35.7072 17.9638C35.7147 18.0138 35.7244 18.0632 35.7313 18.1135C35.5956 18.209 35.4344 18.2626 35.2679 18.2675L33.9963 19.147L42.523 22.3801C42.5412 21.8886 42.5419 21.3928 42.5184 20.8919C42.5192 18.5667 42.1254 16.2579 41.3533 14.0618L35.7072 17.9638Z" fill="#07163F"/>
<path d="M32.3805 18.226C32.3516 18.226 32.3233 18.2222 32.2947 18.221L32.2089 18.36L34.0014 19.0133L35.188 18.2242C35.1792 18.2242 35.171 18.226 35.1618 18.226H32.3805Z" fill="#07163F"/>
<path d="M34.5919 14.1525C35.1569 15.3838 35.544 16.6866 35.7422 18.023L41.5431 14.0456C40.926 12.2993 40.0781 10.6401 39.0211 9.1105L34.9528 13.5445L34.5919 14.1525Z" fill="#07163F"/>
<path d="M29.4926 8.03487C31.0454 9.07092 32.3823 10.3924 33.4305 11.9273L34.9891 13.4677L33.7677 3.85057C32.76 3.13542 31.6904 2.50965 30.5713 1.98053L27.4421 6.00824L29.4926 8.03487Z" fill="#07163F"/>
<path d="M38.9614 9.08707C38.6408 8.618 38.299 8.16486 37.9424 7.7244L34.9893 13.468L38.9614 9.08707Z" fill="#07163F"/>
<path d="M37.9683 7.8168C36.7633 6.35248 35.3602 5.05534 33.7976 3.96106L35.0169 13.4677L37.9683 7.8168Z" fill="#07163F"/>
<path d="M33.0032 28.5197L33.465 28.4558L33.6665 28.428L36.2393 28.0718L37.174 27.9422L34.6492 25.945C34.2082 26.8571 33.656 27.7208 33.0032 28.5197Z" fill="#07163F"/>
<path d="M29.6268 24.3605C30.0185 23.9612 30.3713 23.5198 30.6797 23.0431C30.7766 22.8936 30.8898 22.7572 31.0171 22.637L30.1047 21.7858L29.6268 24.3605Z" fill="#07163F"/>
<path d="M24.066 25.7408L25.0592 26.5391C26.8077 26.3043 28.4378 25.5243 29.7176 24.31L30.2228 21.7858L24.066 25.7408Z" fill="#07163F"/>
<path d="M30.2229 21.7861L33.9964 19.1251L32.1719 18.4192L30.2229 21.7861Z" fill="#07163F"/>
<path d="M32.2086 18.3602L21.2853 14.26L30.164 21.7861L32.2086 18.3602Z" fill="#07163F"/>
<path d="M31.1005 22.7761C31.2536 22.6018 31.4265 22.4597 31.6131 22.3548L30.2229 21.7858L31.1005 22.7761Z" fill="#07163F"/>
<path d="M35.389 23.5686C35.1891 24.3357 34.9224 25.0851 34.5919 25.8087L37.1393 27.9381L38.3078 28.9161L42.1258 25.6757C42.1304 25.6553 42.1343 25.6349 42.139 25.6145L35.389 23.5686Z" fill="#07163F"/>
<path d="M38.3657 29.0148L40.3399 30.6987C41.1297 29.1166 41.7517 27.4655 42.1392 25.7473L38.3657 29.0148Z" fill="#07163F"/>
<path d="M21.2828 14.26L20.2922 16.5651H22.7389C23.4285 16.5651 24.0445 17.0532 24.1037 17.7177C24.1201 17.8929 24.0989 18.0695 24.0413 18.2363C23.9837 18.4031 23.891 18.5564 23.7692 18.6864C23.6474 18.8164 23.4991 18.9203 23.3338 18.9915C23.1685 19.0627 22.9897 19.0996 22.8089 19.0998H21.4241L30.2226 21.7861L21.2828 14.26Z" fill="#07163F"/>
<path d="M34.1366 19.0132L30.2229 21.7743L31.6899 22.2398C31.9388 22.1288 32.2077 22.0709 32.4798 22.0699H35.6961C35.7367 22.0703 35.7772 22.0737 35.8172 22.0803C35.7475 22.5487 35.6541 23.009 35.541 23.4615L42.1212 25.549C42.3558 24.4692 42.4948 23.3705 42.5365 22.2658L34.1366 19.0132Z" fill="#07163F"/>
<path d="M7.35949 22.9742L3.01349 25.7204L3.24715 26.6141L9.36889 27.9256C8.40051 26.4139 7.71922 24.7351 7.35949 22.9742Z" fill="#07163F"/>
<path d="M18.916 19.2113L17.5118 21.3899H18.3409L19.1007 19.2113H18.916Z" fill="#07163F"/>
<path d="M17.5119 23.7663H17.2836C16.8211 23.7672 16.3775 23.9323 16.0486 24.2259C15.7197 24.5195 15.532 24.9181 15.5259 25.3356C15.5243 25.477 15.5554 25.6171 15.6173 25.7469L17.1197 24.6836L17.5119 23.7663Z" fill="#07163F"/>
<path d="M9.96488 28.6292C9.7566 28.3595 9.56135 28.0801 9.37296 27.7959L3.29279 26.5394L1.4248 27.7274C1.60842 28.2629 1.81333 28.7912 2.03954 29.3122L9.96488 28.6292Z" fill="#07163F"/>
<path d="M8.37038 30.541L10.5605 29.3136C10.3504 29.0556 10.1456 28.7928 9.95215 28.52L2.02045 29.263C2.17268 29.6458 2.33382 30.0251 2.50389 30.401L7.03195 31.2927L8.37038 30.541Z" fill="#07163F"/>
<path d="M7.02402 20.1685C7.02347 18.5625 7.27902 16.9675 7.78027 15.4484L1.62347 19.8356L7.03883 20.7959C7.03096 20.5875 7.02402 20.3788 7.02402 20.1685Z" fill="#07163F"/>
<path d="M7.38306 22.8426C7.23303 22.0902 7.14216 21.327 7.11132 20.5599L1.62347 19.6076L3.1543 25.5492L7.38306 22.8426Z" fill="#07163F"/>
<path d="M21.4504 19.2113H19.8953L21.2961 21.328H22.7612C23.4488 21.328 24.0629 21.8225 24.122 22.4989C24.1513 22.83 24.049 23.1594 23.8368 23.4172C23.6246 23.675 23.3191 23.8408 22.9853 23.8795L24.2214 25.7471L30.2228 21.9328L21.4504 19.2113Z" fill="#07163F"/>
<path d="M19.9257 19.2113H19.3056L18.5049 21.3899H21.2854L19.9257 19.2113Z" fill="#07163F"/>
<path d="M17.1149 24.7881L17.7304 24.8729L24.0661 25.7469L22.8661 23.7663C22.8165 23.7753 22.7665 23.7811 22.7163 23.7834H17.473L17.1149 24.7881Z" fill="#07163F"/>
<path d="M17.343 19.2113L15.7332 19.6675C15.5886 19.8647 15.5158 20.1052 15.5269 20.3491C15.5533 20.9444 16.0915 21.3899 16.69 21.3899H17.5397L19.1007 19.2113H17.343Z" fill="#07163F"/>
<path d="M16.598 19.2113C16.4269 19.2117 16.2583 19.2479 16.1064 19.3168C15.9545 19.3857 15.8236 19.4853 15.7245 19.6074L17.3133 19.2113H16.598Z" fill="#07163F"/>
</svg>
