<svg width="28" height="20" viewBox="0 0 28 20" fill="none" xmlns="http://www.w3.org/2000/svg">
<path d="M0 20V16.5C0 15.7917 0.1825 15.1404 0.5475 14.5463C0.911667 13.9529 1.39583 13.5 2 13.1875C3.29167 12.5417 4.60417 12.0571 5.9375 11.7338C7.27083 11.4113 8.625 11.25 10 11.25C11.375 11.25 12.7292 11.4113 14.0625 11.7338C15.3958 12.0571 16.7083 12.5417 18 13.1875C18.6042 13.5 19.0883 13.9529 19.4525 14.5463C19.8175 15.1404 20 15.7917 20 16.5V20H0ZM22.5 20V16.25C22.5 15.3333 22.245 14.4529 21.735 13.6088C21.2242 12.7654 20.5 12.0417 19.5625 11.4375C20.625 11.5625 21.625 11.7758 22.5625 12.0775C23.5 12.38 24.375 12.75 25.1875 13.1875C25.9375 13.6042 26.5104 14.0675 26.9062 14.5775C27.3021 15.0883 27.5 15.6458 27.5 16.25V20H22.5ZM10 10C8.625 10 7.44792 9.51042 6.46875 8.53125C5.48958 7.55208 5 6.375 5 5C5 3.625 5.48958 2.44792 6.46875 1.46875C7.44792 0.489584 8.625 0 10 0C11.375 0 12.5521 0.489584 13.5312 1.46875C14.5104 2.44792 15 3.625 15 5C15 6.375 14.5104 7.55208 13.5312 8.53125C12.5521 9.51042 11.375 10 10 10ZM22.5 5C22.5 6.375 22.0104 7.55208 21.0312 8.53125C20.0521 9.51042 18.875 10 17.5 10C17.2708 10 16.9792 9.97417 16.625 9.9225C16.2708 9.87 15.9792 9.8125 15.75 9.75C16.3125 9.08333 16.7446 8.34375 17.0462 7.53125C17.3487 6.71875 17.5 5.875 17.5 5C17.5 4.125 17.3487 3.28125 17.0462 2.46875C16.7446 1.65625 16.3125 0.916666 15.75 0.25C16.0417 0.145833 16.3333 0.0779169 16.625 0.0462502C16.9167 0.0154169 17.2083 0 17.5 0C18.875 0 20.0521 0.489584 21.0312 1.46875C22.0104 2.44792 22.5 3.625 22.5 5Z" fill="white"/>
</svg>
