<svg width="20" height="25" viewBox="0 0 20 25" fill="none" xmlns="http://www.w3.org/2000/svg">
<path d="M9.66667 12.5C10.3313 12.5 10.9004 12.2631 11.374 11.7895C11.8469 11.3166 12.0833 10.7479 12.0833 10.0833C12.0833 9.41871 11.8469 8.84958 11.374 8.37592C10.9004 7.90306 10.3313 7.66663 9.66667 7.66663C9.00208 7.66663 8.43336 7.90306 7.9605 8.37592C7.48683 8.84958 7.25 9.41871 7.25 10.0833C7.25 10.7479 7.48683 11.3166 7.9605 11.7895C8.43336 12.2631 9.00208 12.5 9.66667 12.5ZM9.66667 24.5833C6.42431 21.8243 4.00281 19.2614 2.40217 16.8947C0.800722 14.5288 0 12.3388 0 10.325C0 7.30413 0.971903 4.89753 2.91571 3.10517C4.85871 1.31281 7.10903 0.416626 9.66667 0.416626C12.2243 0.416626 14.4746 1.31281 16.4176 3.10517C18.3614 4.89753 19.3333 7.30413 19.3333 10.325C19.3333 12.3388 18.533 14.5288 16.9324 16.8947C15.3309 19.2614 12.909 21.8243 9.66667 24.5833Z" fill="white"/>
</svg>
