<svg width="34" height="36" viewBox="0 0 34 36" fill="none" xmlns="http://www.w3.org/2000/svg">
<path d="M17.0325 18C14.7199 18 12.7401 17.1514 11.0932 15.4542C9.44629 13.757 8.62284 11.7167 8.62284 9.33335C8.62284 6.95002 9.44629 4.90974 11.0932 3.21252C12.7401 1.5153 14.7199 0.666687 17.0325 0.666687C19.3452 0.666687 21.325 1.5153 22.9719 3.21252C24.6188 4.90974 25.4422 6.95002 25.4422 9.33335C25.4422 11.7167 24.6188 13.757 22.9719 15.4542C21.325 17.1514 19.3452 18 17.0325 18ZM0.213135 35.3334V29.2667C0.213135 28.0389 0.520089 26.9101 1.134 25.8802C1.7465 24.8517 2.56084 24.0667 3.57702 23.525C5.74952 22.4056 7.95707 21.5656 10.1997 21.0052C12.4422 20.4462 14.7199 20.1667 17.0325 20.1667C19.3452 20.1667 21.6228 20.4462 23.8654 21.0052C26.108 21.5656 28.3156 22.4056 30.4881 23.525C31.5042 24.0667 32.3186 24.8517 32.9311 25.8802C33.545 26.9101 33.852 28.0389 33.852 29.2667V35.3334H0.213135Z" fill="#07163F"/>
</svg>
