<svg width="39" height="40" viewBox="0 0 39 40" fill="none" xmlns="http://www.w3.org/2000/svg">
<path d="M10.8363 30.8333C11.432 30.8333 11.9317 30.6253 12.3354 30.2093C12.7376 29.7948 12.9388 29.2806 12.9388 28.6667C12.9388 28.0528 12.7376 27.5378 12.3354 27.1218C11.9317 26.7073 11.432 26.5 10.8363 26.5C10.2407 26.5 9.74098 26.7073 9.33732 27.1218C8.93505 27.5378 8.73392 28.0528 8.73392 28.6667C8.73392 29.2806 8.93505 29.7948 9.33732 30.2093C9.74098 30.6253 10.2407 30.8333 10.8363 30.8333ZM10.8363 22.1667C11.432 22.1667 11.9317 21.9587 12.3354 21.5427C12.7376 21.1281 12.9388 20.6139 12.9388 20C12.9388 19.3861 12.7376 18.8712 12.3354 18.4552C11.9317 18.0406 11.432 17.8333 10.8363 17.8333C10.2407 17.8333 9.74098 18.0406 9.33732 18.4552C8.93505 18.8712 8.73392 19.3861 8.73392 20C8.73392 20.6139 8.93505 21.1281 9.33732 21.5427C9.74098 21.9587 10.2407 22.1667 10.8363 22.1667ZM10.8363 13.5C11.432 13.5 11.9317 13.292 12.3354 12.876C12.7376 12.4614 12.9388 11.9472 12.9388 11.3333C12.9388 10.7194 12.7376 10.2045 12.3354 9.7885C11.9317 9.37395 11.432 9.16667 10.8363 9.16667C10.2407 9.16667 9.74098 9.37395 9.33732 9.7885C8.93505 10.2045 8.73392 10.7194 8.73392 11.3333C8.73392 11.9472 8.93505 12.4614 9.33732 12.876C9.74098 13.292 10.2407 13.5 10.8363 13.5ZM17.1436 30.8333H29.7582V26.5H17.1436V30.8333ZM17.1436 22.1667H29.7582V17.8333H17.1436V22.1667ZM17.1436 13.5H29.7582V9.16667H17.1436V13.5ZM4.52907 39.5C3.37274 39.5 2.38249 39.0761 1.55834 38.2282C0.735593 37.3788 0.324219 36.3583 0.324219 35.1667V4.83333C0.324219 3.64167 0.735593 2.62117 1.55834 1.77183C2.38249 0.923944 3.37274 0.5 4.52907 0.5H33.963C35.1194 0.5 36.1096 0.923944 36.9338 1.77183C37.7565 2.62117 38.1679 3.64167 38.1679 4.83333V35.1667C38.1679 36.3583 37.7565 37.3788 36.9338 38.2282C36.1096 39.0761 35.1194 39.5 33.963 39.5H4.52907Z" fill="#07163F"/>
</svg>
