<svg width="114" height="114" viewBox="0 0 114 114" fill="none" xmlns="http://www.w3.org/2000/svg">
<path d="M104.5 113.25L65.125 73.875C62 76.375 58.4062 78.3542 54.3437 79.8125C50.2812 81.2708 45.9583 82 41.375 82C30.0208 82 20.4125 78.0687 12.55 70.2062C4.68333 62.3396 0.75 52.7292 0.75 41.375C0.75 30.0208 4.68333 20.4104 12.55 12.5438C20.4125 4.68125 30.0208 0.75 41.375 0.75C52.7292 0.75 62.3396 4.68125 70.2062 12.5438C78.0687 20.4104 82 30.0208 82 41.375C82 45.9583 81.2708 50.2812 79.8125 54.3437C78.3542 58.4062 76.375 62 73.875 65.125L113.25 104.5L104.5 113.25ZM41.375 69.5C49.1875 69.5 55.8292 66.7667 61.3 61.3C66.7667 55.8292 69.5 49.1875 69.5 41.375C69.5 33.5625 66.7667 26.9208 61.3 21.45C55.8292 15.9833 49.1875 13.25 41.375 13.25C33.5625 13.25 26.9208 15.9833 21.45 21.45C15.9833 26.9208 13.25 33.5625 13.25 41.375C13.25 49.1875 15.9833 55.8292 21.45 61.3C26.9208 66.7667 33.5625 69.5 41.375 69.5Z" fill="#F8F8F8"/>
</svg>
